<!-- <svg xmlns="http://www.w3.org/2000/svg" viewBox="0 0 439.33 236.63"><title>DromonLogo</title><g><g><path d="M45.84,72.83l37.85,75.69H45.84V72.83M28.65,0V165.71h82.86L28.65,0Z"/><rect x="82.18" y="125.17" width="62.94" height="17.19" transform="translate(181.25 -28.23) rotate(63)"/><rect x="120.28" y="157.91" width="15.32" height="7.81"/><rect x="91.71" y="101.83" width="41.82" height="7.81"/><rect x="103.17" y="101.83" width="32.43" height="17.19"/><rect x="144.2" y="101.83" width="17.19" height="63.89"/><rect x="178.58" y="101.83" width="17.19" height="63.89"/><rect x="152.79" y="148.52" width="34.38" height="17.19"/><rect x="155.66" y="101.83" width="34.38" height="17.19"/><rect x="204.37" y="101.83" width="17.19" height="63.89"/><rect x="204.37" y="101.83" width="77.37" height="17.2"/><rect x="273.14" y="118.67" width="17.19" height="47.05"/><rect x="238.76" y="101.83" width="17.19" height="63.89"/><rect x="270.48" y="106.51" width="18.91" height="13.71" transform="translate(253.86 -187.53) rotate(63)"/><rect x="268.61" y="107.17" width="18.91" height="17.19" transform="translate(254.97 -184.55) rotate(63)"/><rect x="298.93" y="101.83" width="17.19" height="63.89"/><rect x="333.31" y="101.83" width="17.19" height="63.89"/><rect x="307.52" y="148.52" width="34.38" height="17.19"/><rect x="310.39" y="101.83" width="34.38" height="17.19"/><rect x="359.1" y="101.83" width="42.98" height="17.2"/><rect x="393.49" y="118.67" width="17.19" height="47.05"/><rect x="359.1" y="101.83" width="17.19" height="63.89"/><rect x="390.83" y="106.51" width="18.91" height="13.71" transform="translate(319.57 -294.76) rotate(63)"/><rect x="388.96" y="107.17" width="18.91" height="17.19" transform="translate(320.68 -291.78) rotate(63)"/><path d="M405.34,191.5l-20.55,27.94H37.28L25.72,191.5H405.34m34-17.19H0l25.79,62.32h367.7l45.85-62.32Z"/></g></g></svg> -->

<svg xmlns="http://www.w3.org/2000/svg" viewBox="0 0 440 237" fill="currentColor">
<path fill-rule="evenodd" clip-rule="evenodd" d="M45.84 72.83L83.69 148.52H45.84V72.83ZM28.65 0V165.71H111.51L28.65 0ZM133.53 101.83H135.6V119.02H115.796L135.606 157.899L135.584 157.91H135.6V165.72H120.28V165.684L91.7239 109.64H91.71V101.83H103.17H107.01L107.032 101.819L107.037 101.83H133.53ZM155.66 101.83H144.2V165.72H161.39V165.71H178.58V165.72H195.77V101.83H190.04H178.58H161.39H155.66ZM161.39 119.02V148.52H178.58V119.02H161.39ZM221.56 101.83H204.37V119.03V165.72H221.56V119.03H238.76V165.72H255.95V119.03H270.079L273.14 125.037V165.72H290.33V118.678L290.339 118.673L281.754 101.824L281.74 101.831V101.83H255.95H238.76H221.56ZM310.39 101.83H298.93V165.72H316.12V165.71H333.31V165.72H350.5V101.83H344.77H333.31H316.12H310.39ZM316.12 119.02V148.52H333.31V119.02H316.12ZM402.08 101.83H376.29H359.1V119.03V165.72H376.29V119.03H390.426L393.49 125.044V165.72H410.68V118.679L410.687 118.676L402.102 101.827L402.08 101.838V101.83ZM384.79 219.44L405.34 191.5H25.72L37.28 219.44H384.79ZM0 174.31H439.34L393.49 236.63H25.79L0 174.31Z"/>
</svg>
